<svg width="32" height="32" viewBox="0 0 32 32" fill="none" xmlns="http://www.w3.org/2000/svg">
<rect x="0.609375" y="0.9646" width="29.8446" height="29.8446" fill="#F00000"/>
<path fill-rule="evenodd" clip-rule="evenodd" d="M21.6741 23.8001C22.1635 24.2895 22.9568 24.2895 23.4462 23.8001C23.9355 23.3108 23.9355 22.5174 23.4462 22.0281L17.4655 16.0475L23.446 10.067C23.9353 9.57762 23.9353 8.78425 23.446 8.29491C22.9567 7.80558 22.1633 7.80558 21.674 8.29491L15.6935 14.2754L9.71284 8.29479C9.22351 7.80546 8.43014 7.80546 7.9408 8.29479C7.45147 8.78413 7.45147 9.5775 7.9408 10.0668L13.9214 16.0475L7.94065 22.0282C7.45131 22.5176 7.45131 23.3109 7.94065 23.8003C8.42998 24.2896 9.22335 24.2896 9.71269 23.8003L15.6935 17.8195L21.6741 23.8001Z" fill="white"/>
</svg>
